<svg aria-hidden="true" style="position:absolute;width:0;height:0;overflow:hidden" xmlns="http://www.w3.org/2000/svg">
    <defs>
        <symbol id="phone" viewBox="0 0 32 32">
            <path
                d="m24.882 19.773-3.268-.373a2.561 2.561 0 0 0-2.11.733L17.137 22.5a19.357 19.357 0 0 1-8.478-8.478l2.38-2.38a2.561 2.561 0 0 0 .733-2.11l-.373-3.242a2.575 2.575 0 0 0-2.56-2.277H6.613c-1.454 0-2.663 1.209-2.573 2.663.682 10.987 9.469 19.761 20.443 20.443 1.454.09 2.663-1.119 2.663-2.573V22.32a2.549 2.549 0 0 0-2.264-2.547z" />
        </symbol>
        <symbol id="email" viewBox="0 0 32 32">
            <path
                d="M26.667 5.333H5.334A2.663 2.663 0 0 0 2.681 8l-.013 16c0 1.467 1.2 2.667 2.667 2.667h21.333c1.467 0 2.667-1.2 2.667-2.667V8c0-1.467-1.2-2.667-2.667-2.667zM26.133 11l-9.427 5.893a1.346 1.346 0 0 1-1.413 0L5.866 11a1.132 1.132 0 1 1 1.2-1.92l8.933 5.587 8.933-5.587a1.132 1.132 0 1 1 1.2 1.92z" />
        </symbol>
        <symbol id="uncheck" viewBox="0 0 32 32">
            <path
                d="M28.444 4.333v23.333H3.555V4.333h24.889zm0-3.333H3.555C1.599 1-.001 2.5-.001 4.333v23.333c0 1.833 1.6 3.333 3.556 3.333h24.889c1.956 0 3.556-1.5 3.556-3.333V4.333C32 2.5 30.4 1 28.444 1z" />
        </symbol>
        <symbol id="check" viewBox="0 0 32 32">
            <path fill="#2196f3" style="fill:var(--color1, #2196f3)"
                d="M4 1h24a4 4 0 0 1 4 4v22a4 4 0 0 1-4 4H4a4 4 0 0 1-4-4V5a4 4 0 0 1 4-4z" />
            <path fill="#fff" style="fill:var(--color2, #fff);stroke:var(--color2, #fff)" stroke="#fff"
                stroke-width=".4"
                d="m7.914 16.503-.138-.131-2.067 1.958 7.282 6.947 15.298-14.594-2.053-1.959-13.245 12.623-5.077-4.844z" />
        </symbol>
        <symbol id="location2" viewBox="0 0 32 32">
            <path
                d="M16 0C10.477 0 6 4.477 6 10c0 10 10 22 10 22s10-12 10-22c0-5.523-4.477-10-10-10zm0 16.125a6.125 6.125 0 1 1 0-12.25 6.125 6.125 0 0 1 0 12.25zM12.125 10a3.875 3.875 0 1 1 7.75 0 3.875 3.875 0 0 1-7.75 0z" />
        </symbol>
        <symbol id="arrow-right2" viewBox="0 0 32 32">
            <path
                d="m19.414 27.414 10-10a2 2 0 0 0 0-2.828l-10-10a2 2 0 1 0-2.828 2.828L23.172 14H4a2 2 0 1 0 0 4h19.172l-6.586 6.586c-.39.39-.586.902-.586 1.414s.195 1.024.586 1.414a2 2 0 0 0 2.828 0z" />
        </symbol>
        <symbol id="arrow-left2" viewBox="0 0 32 32">
            <path
                d="m12.586 27.414-10-10a2 2 0 0 1 0-2.828l10-10a2 2 0 1 1 2.828 2.828L8.828 14H28a2 2 0 1 1 0 4H8.828l6.586 6.586c.39.39.586.902.586 1.414s-.195 1.024-.586 1.414a2 2 0 0 1-2.828 0z" />
        </symbol>
        <symbol id="facebook" viewBox="0 0 32 32">
            <path d="M19 6h5V0h-5c-3.86 0-7 3.14-7 7v3H8v6h4v16h6V16h5l1-6h-6V7c0-.542.458-1 1-1z" />
        </symbol>
        <symbol id="twitter" viewBox="0 0 32 32">
            <path
                d="M32 7.075a12.941 12.941 0 0 1-3.769 1.031 6.601 6.601 0 0 0 2.887-3.631 13.21 13.21 0 0 1-4.169 1.594A6.565 6.565 0 0 0 22.155 4a6.563 6.563 0 0 0-6.563 6.563c0 .512.056 1.012.169 1.494A18.635 18.635 0 0 1 2.23 5.195a6.56 6.56 0 0 0-.887 3.3 6.557 6.557 0 0 0 2.919 5.463 6.565 6.565 0 0 1-2.975-.819v.081a6.565 6.565 0 0 0 5.269 6.437 6.574 6.574 0 0 1-2.968.112 6.588 6.588 0 0 0 6.131 4.563 13.17 13.17 0 0 1-9.725 2.719 18.568 18.568 0 0 0 10.069 2.95c12.075 0 18.681-10.006 18.681-18.681 0-.287-.006-.569-.019-.85A13.216 13.216 0 0 0 32 7.076z" />
        </symbol>
        <symbol id="linkedin2" viewBox="0 0 32 32">
            <path
                d="M12 12h5.535v2.837h.079c.77-1.381 2.655-2.837 5.464-2.837C28.92 12 30 15.637 30 20.367V30h-5.769v-8.54c0-2.037-.042-4.657-3.001-4.657-3.005 0-3.463 2.218-3.463 4.509V30H12V12zM2 12h6v18H2V12zM8 7a3 3 0 1 1-6 0 3 3 0 0 1 6 0z" />
        </symbol>
        <symbol id="pinterest" viewBox="0 0 32 32">
            <path
                d="M16 2.138c-7.656 0-13.863 6.206-13.863 13.863 0 5.875 3.656 10.887 8.813 12.906-.119-1.094-.231-2.781.05-3.975.25-1.081 1.625-6.887 1.625-6.887s-.412-.831-.412-2.056c0-1.925 1.119-3.369 2.506-3.369 1.181 0 1.756.887 1.756 1.95 0 1.188-.756 2.969-1.15 4.613-.331 1.381.688 2.506 2.05 2.506 2.462 0 4.356-2.6 4.356-6.35 0-3.319-2.387-5.638-5.787-5.638-3.944 0-6.256 2.956-6.256 6.019 0 1.194.456 2.469 1.031 3.163a.408.408 0 0 1 .094.4c-.106.438-.338 1.381-.387 1.575-.063.256-.2.306-.463.188-1.731-.806-2.813-3.337-2.813-5.369 0-4.375 3.175-8.387 9.156-8.387 4.806 0 8.544 3.425 8.544 8.006 0 4.775-3.012 8.625-7.194 8.625-1.406 0-2.725-.731-3.175-1.594 0 0-.694 2.644-.863 3.294-.313 1.206-1.156 2.712-1.725 3.631 1.3.4 2.675.619 4.106.619 7.656 0 13.863-6.206 13.863-13.863 0-7.662-6.206-13.869-13.863-13.869z" />
        </symbol>
        <symbol id="pinterest2" viewBox="0 0 32 32">
            <path
                d="M16 0C7.175 0 0 7.175 0 16s7.175 16 16 16 16-7.175 16-16S24.825 0 16 0zm0 29.863c-1.431 0-2.806-.219-4.106-.619.563-.919 1.412-2.431 1.725-3.631.169-.65.863-3.294.863-3.294.45.863 1.775 1.594 3.175 1.594 4.181 0 7.194-3.844 7.194-8.625 0-4.581-3.738-8.006-8.544-8.006-5.981 0-9.156 4.019-9.156 8.387 0 2.031 1.081 4.563 2.813 5.369.262.125.4.069.463-.188.044-.194.281-1.131.387-1.575a.427.427 0 0 0-.094-.4c-.575-.694-1.031-1.975-1.031-3.162 0-3.056 2.313-6.019 6.256-6.019 3.406 0 5.788 2.319 5.788 5.637 0 3.75-1.894 6.35-4.356 6.35-1.363 0-2.381-1.125-2.05-2.506.394-1.65 1.15-3.425 1.15-4.613 0-1.063-.569-1.95-1.756-1.95-1.394 0-2.506 1.438-2.506 3.369 0 1.225.412 2.056.412 2.056s-1.375 5.806-1.625 6.887c-.281 1.2-.169 2.881-.05 3.975-5.156-2.012-8.813-7.025-8.813-12.9 0-7.656 6.206-13.863 13.862-13.863s13.863 6.206 13.863 13.863c0 7.656-6.206 13.863-13.863 13.863z" />
        </symbol>
        <symbol id="logo-img" viewBox="0 0 69 42">
            <g clip-path="url(#clip0_0_162)">
                <path
                    d="M44.6348 21.1039L45.9133 24.0542C46.1496 24.598 46.8002 24.8552 47.3678 24.6293C47.9364 24.4057 48.206 23.783 47.9704 23.2389L46.6922 20.2896L44.6348 21.1039Z" />
                <path d="M45.4877 23.0706L47.5447 22.2561L45.4877 23.0706Z" />
                <path d="M41.9372 14.877L44.8465 16.0287L41.9372 14.877Z" />
                <path
                    d="M43.5203 8.89645C43.5203 10.4642 42.1915 11.7349 40.5531 11.7349C38.9129 11.7349 37.5838 10.4642 37.5838 8.89645C37.5838 7.32897 38.9129 6.05896 40.5531 6.05896C42.1912 6.05896 43.5203 7.32897 43.5203 8.89645Z" />
                <path
                    d="M42.0359 8.89649C42.0359 9.68086 41.3719 10.3163 40.5527 10.3163C39.7325 10.3163 39.067 9.68086 39.067 8.89649C39.067 8.11278 39.7325 7.4773 40.5527 7.4773C41.3719 7.47694 42.0359 8.11278 42.0359 8.89649Z" />
                <path
                    d="M38.4707 10.9196L34.41 20.2899L33.3921 24.4949L34.0777 24.7664L36.4677 21.1043L37.0363 19.7937C36.5926 18.769 37.1009 17.5942 38.1724 17.1706L40.5271 11.734C39.7262 11.7276 39.0016 11.4183 38.4707 10.9196Z" />
                <path
                    d="M42.6331 10.9189C42.1018 11.4183 41.3766 11.7276 40.5757 11.7337L44.0686 19.7921L46.125 18.9781L42.6331 10.9189Z" />
                <path
                    d="M41.6653 4.63947V1.44605C41.6649 0.85753 41.165 0.38147 40.5521 0.38147C39.9372 0.38147 39.439 0.856886 39.4386 1.44605L39.439 4.63947H41.6653Z" />
                <path
                    d="M40.5527 6.05899C40.7424 6.05899 40.9284 6.07721 41.1083 6.10982V4.63977H39.9955V6.10982C40.1762 6.07689 40.3611 6.05899 40.5527 6.05899Z" />
                <path
                    d="M25.0957 25.9407H21.3929V0.380859H25.0963C25.9146 0.380859 26.5774 1.01699 26.5774 1.80136V24.5214H26.5771C26.5768 25.3058 25.9139 25.9407 25.0957 25.9407Z" />
                <path
                    d="M24.911 2.51126C25.2179 2.51126 25.4667 2.27281 25.4667 1.97865C25.4667 1.6845 25.2179 1.44604 24.911 1.44604C24.6042 1.44604 24.3555 1.6845 24.3555 1.97865C24.3555 2.27281 24.6042 2.51126 24.911 2.51126Z" />
                <path
                    d="M29.1694 15.4696C29.1694 15.7626 29.4184 16.0019 29.725 16.0019C30.032 16.0019 30.2806 15.7626 30.2806 15.4696C30.2806 15.7626 30.5299 16.0019 30.8362 16.0019C31.1431 16.0019 31.3917 15.7626 31.3917 15.4696C31.3917 15.7626 31.1431 16.0019 30.8362 16.0019C30.5299 16.0019 30.2806 15.7626 30.2806 15.4696C30.2806 15.7626 30.032 16.0019 29.725 16.0019C29.4184 16.0019 29.1694 15.7626 29.1694 15.4696Z" />
                <path
                    d="M29.9103 0.380859C29.5017 0.380859 29.1694 0.699402 29.1694 1.09175V1.09143V16.0016L30.2802 20.2615L31.3914 16.0016V1.09111V1.09143C31.3914 0.699722 31.0595 0.381179 30.6505 0.381179L29.9103 0.380859Z" />
            </g>
            <defs>
                <clipPath id="clip0_0_162">
                    <rect width="68.5517" height="41.5272" fill="white" transform="translate(0.448242 0.142822)" />
                </clipPath>
            </defs>
        </symbol>
    </defs>
</svg>